<?xml version="1.0" standalone="no"?>
<!DOCTYPE svg PUBLIC "-//W3C//DTD SVG 20010904//EN"
 "http://www.w3.org/TR/2001/REC-SVG-20010904/DTD/svg10.dtd">
<svg version="1.0" xmlns="http://www.w3.org/2000/svg"
 width="856.000000pt" height="802.000000pt" viewBox="0 0 856.000000 802.000000"
 preserveAspectRatio="xMidYMid meet">
<metadata>
Created by potrace 1.15, written by Peter Selinger 2001-2017
</metadata>
<g transform="translate(0.000000,802.000000) scale(0.100000,-0.100000)"
fill="#000000" stroke="none">
<path d="M5788 7435 c-2 -1 -93 -5 -203 -9 -110 -4 -216 -9 -235 -11 -19 -3
-87 -9 -150 -15 -554 -52 -1126 -189 -1640 -393 -216 -85 -563 -255 -652 -318
-14 -11 -29 -19 -32 -19 -12 0 -296 -191 -383 -258 -133 -103 -249 -218 -490
-481 -256 -279 -369 -414 -466 -556 -73 -107 -167 -254 -167 -262 0 -4 -6 -14
-14 -22 -28 -33 -226 -414 -260 -501 -10 -25 -24 -58 -31 -75 -91 -209 -176
-519 -217 -796 -30 -205 -33 -647 -5 -829 79 -518 250 -950 567 -1436 27 -42
50 -80 50 -85 0 -5 -84 -100 -186 -211 l-186 -203 7 -49 c3 -27 16 -70 28 -95
27 -56 68 -78 159 -86 l63 -5 140 155 c77 85 161 178 186 206 l47 52 198 -100
c662 -335 1267 -447 1934 -358 585 77 1164 339 1740 785 216 168 339 287 661
640 345 380 423 489 610 865 121 243 165 350 256 625 158 477 240 925 280
1525 15 237 4 780 -22 1010 -49 442 -117 825 -182 1034 -38 122 -68 153 -181
180 -115 27 -281 50 -477 66 -38 3 -86 8 -105 10 -78 8 -635 26 -642 20z m732
-389 c254 -27 350 -40 350 -47 0 -3 16 -85 36 -180 52 -254 75 -413 110 -754
23 -218 28 -915 8 -1140 -58 -687 -207 -1242 -480 -1800 -44 -90 -79 -153
-134 -243 -25 -40 -50 -81 -55 -90 -59 -101 -246 -337 -386 -487 -622 -670
-1232 -1066 -1893 -1230 -227 -56 -380 -74 -631 -75 -237 0 -359 14 -605 66
-130 28 -392 111 -487 155 -35 16 -66 29 -69 29 -3 0 -58 25 -121 55 -64 30
-117 55 -120 55 -2 0 -19 10 -38 23 l-35 24 361 394 c199 217 364 397 368 401
3 4 33 1 66 -7 33 -8 215 -49 405 -90 190 -42 365 -80 390 -86 145 -34 456
-102 585 -128 83 -17 206 -42 275 -56 416 -87 479 -87 530 -2 24 39 27 122 6
172 -17 40 -41 57 -121 84 -62 21 -354 95 -415 106 -19 3 -60 12 -90 20 -30 8
-120 28 -200 45 -218 46 -363 78 -480 105 -58 13 -222 50 -365 81 -143 31
-269 60 -279 64 -16 6 10 39 179 221 109 118 267 286 350 374 83 88 171 182
196 208 l44 48 140 -34 c77 -19 282 -71 455 -115 1082 -276 1194 -304 1488
-368 152 -33 180 -32 233 9 73 55 85 149 29 227 -19 27 -118 67 -285 115 -49
14 -127 37 -171 50 -94 29 -807 214 -1291 335 l-332 84 31 35 c18 20 196 215
396 434 254 276 370 396 381 393 63 -19 919 -229 1185 -292 223 -52 192 -45
388 -86 l157 -32 42 29 c64 45 82 75 83 137 1 75 -35 138 -89 157 -125 42
-435 125 -928 247 -306 76 -557 142 -557 147 0 17 463 530 1224 1357 l207 225
-6 40 c-21 141 -62 179 -201 187 l-51 3 -243 -265 c-976 -1063 -1206 -1309
-1213 -1299 -2 2 -10 27 -19 54 -15 47 -72 214 -257 750 -167 486 -232 649
-271 686 -56 54 -169 50 -224 -7 -54 -55 -62 -84 -43 -157 40 -162 169 -553
480 -1458 l64 -186 -395 -431 c-217 -238 -397 -431 -398 -429 -2 2 -42 116
-90 253 -47 137 -106 308 -131 379 -24 72 -53 155 -63 185 -10 30 -23 66 -29
80 -5 14 -46 126 -90 250 -221 625 -310 838 -364 871 -48 29 -92 34 -141 15
-72 -28 -113 -93 -104 -164 6 -38 87 -302 139 -452 17 -47 52 -150 79 -230 26
-80 81 -237 120 -350 261 -745 355 -1012 375 -1066 l22 -62 -79 -88 c-44 -49
-121 -136 -171 -194 -137 -157 -519 -575 -528 -578 -5 -2 -9 2 -9 9 0 11 -58
203 -100 329 -10 30 -35 109 -55 175 -20 66 -63 206 -96 310 -33 105 -83 262
-110 350 -28 88 -80 248 -116 355 -113 341 -137 382 -226 395 -89 14 -164 -30
-185 -107 -12 -43 -8 -74 20 -178 11 -41 24 -88 28 -105 5 -16 20 -68 33 -115
96 -327 139 -469 218 -720 50 -157 106 -332 124 -390 18 -58 56 -179 85 -270
29 -91 65 -205 81 -254 27 -85 28 -90 11 -111 -9 -13 -174 -195 -367 -404
l-350 -382 -22 27 c-12 15 -27 39 -34 53 -8 14 -25 44 -40 66 -125 192 -279
541 -348 790 -188 680 -113 1359 225 2038 62 125 109 211 135 249 11 14 19 29
19 33 0 28 303 450 419 585 31 36 74 87 96 114 62 78 317 337 427 433 339 298
824 565 1368 753 64 23 316 94 420 119 306 75 707 134 1080 160 187 13 899 5
1060 -13z"/>
</g>
</svg>
